<svg id="iconce.com" width="16" height="16" viewBox="0 0 16 16" fill="none" xmlns="http://www.w3.org/2000/svg"><defs><linearGradient id="r5" gradientUnits="userSpaceOnUse" gradientTransform="rotate(45)" style="transform-origin:center center"><stop stop-color="#FFFFFF00"/><stop offset="1" stop-color="#3F5EFB"/></linearGradient><radialGradient id="r6" cx="0" cy="0" r="1" gradientUnits="userSpaceOnUse" gradientTransform="translate(256) rotate(90) scale(512)"><stop stop-color="white"/><stop offset="1" stop-color="white" stop-opacity="0"/></radialGradient></defs><rect id="r4" width="16" height="16" x="0" y="0" rx="64" fill="#FFFFFF00" stroke="#16181A00" stroke-width="0" stroke-opacity="100%" paint-order="stroke"/><svg xmlns="http://www.w3.org/2000/svg" width="16" height="16" viewBox="0 0 24 24" fill="none" stroke="#16181A" stroke-width="2" stroke-linecap="round" stroke-linejoin="round" class="text-white" alignment-baseline="middle" x="0" y="0"><path d="M4 22h14a2 2 0 0 0 2-2V7.5L14.5 2H6a2 2 0 0 0-2 2v3"/><polyline points="14 2 14 8 20 8"/><path d="M5 17a3 3 0 1 0 0-6 3 3 0 0 0 0 6z"/><path d="m9 18-1.5-1.5"/></svg></svg>